<svg fill="none" xmlns="http://www.w3.org/2000/svg" viewBox="0 0 64 64"><path d="M51 43.4H11.6V47H51zM36.6 24.2l2.7 6.6 4.6-2.4-4-9H34L25.7 35s4-.1 6.7-2.2c.7-.3 2.5-5.2 4.2-8.5" fill="#00664b"/><path d="m44 28.5-4.7 2.4c-4.1 2-7.8 3.9-10 4.5-5.4 1.6-12 2.5-14.4.4-2.2-2 3-10.2 12.7-12l2.5-.2s-.7-3-1.2-3.4q-1-1.2-2.4-1c-2.2.1-11.1 2.6-14.7 10a9 9 0 0 0 2.4 9.8c.7.6 5.9 5.2 17.6.6 11.6-4.8 22-11.9 22-11.9V23z" fill="#008b92"/><path d="m40.9 35.2 2 4.8c.4 1 1.5 1 1.5 1h5.4l-4-8.4q-2.2 1.3-5 2.6" fill="#00664b"/><path d="M53.9 21.1s-6.2 3.5-7.7 4c-1.3.6-1.8-.1-2-.4L43 22.1l1.2-.1c1-.2 9.5-5 9.5-5v4" fill="#e30613"/></svg>