<svg fill="none" xmlns="http://www.w3.org/2000/svg" viewBox="0 0 64 64"><path d="M14.8 36.3c0 1.8-1.4 3.2-3.2 3.2a3 3 0 0 1-3.2-3.2c0-1.8 1.4-3.2 3.2-3.2s3.2 1.5 3.2 3.2m1.8 6.3a3 3 0 1 1-6 0 3 3 0 0 1 6 0M14 29.3a3 3 0 1 1-3-3 3 3 0 0 1 3 3m6.7 18.3c0 1.5-1.2 2.7-2.7 2.7a2.6 2.6 0 0 1-2.7-2.7c0-1.5 1.2-2.6 2.7-2.6 1.4 0 2.7 1.1 2.7 2.6M15.3 23c0 1.6-1.2 2.7-2.7 2.7a2.6 2.6 0 0 1-2.6-2.6c0-1.5 1.1-2.7 2.6-2.7s2.7 1.2 2.7 2.7M20.7 35c0 1.5-1.2 2.7-2.7 2.7a2.6 2.6 0 0 1-2.7-2.7 2.7 2.7 0 0 1 5.3 0m4.8 16.5c0 1.5-1.2 2.6-2.6 2.6a2.6 2.6 0 0 1-2.6-2.6c0-1.4 1.2-2.5 2.6-2.5s2.6 1.1 2.6 2.5m-6.7-33.7c0 1.4-1.2 2.6-2.6 2.6a2.6 2.6 0 0 1-2.5-2.6c0-1.4 1.1-2.6 2.5-2.6 1.5 0 2.6 1.2 2.6 2.6m11.6 35.5a2.3 2.3 0 1 1-4.6 0 2.3 2.3 0 0 1 4.6 0" fill="#034ea2"/><path d="M22 13.8a2.3 2.3 0 1 1-4.5 0 2.3 2.3 0 0 1 4.5 0m12.9 40.3A2 2 0 0 1 33 56q-1.7-.2-1.9-1.9.2-1.7 2-1.9 1.6.1 1.8 2m-8.7-42.7c0 1-.8 1.9-1.9 1.9q-1.6-.2-1.8-1.9.2-1.7 1.8-1.9c1 0 2 .9 2 2m-5.6 12.9q-.2 1.7-2 1.9-1.7-.2-1.8-1.9c-.1-1.7.9-1.9 1.9-1.9s1.9.8 1.9 1.9m4.9 9.4c0 1-.9 1.9-1.9 1.9s-1.9-1-1.9-2q.2-1.6 2-1.8 1.6.1 1.8 1.9M24 44.4q-.1 1.8-1.9 2c-1 0-1.8-1-1.8-2q.1-1.6 1.8-1.8c1 0 2 .8 2 1.8M31 10.3q0 1.7-1.7 1.7-1.7-.2-1.9-1.8c0-1.1.9-2 1.9-2q1.7.2 1.9 2m8.5 43.3q-.1 1.5-1.6 1.6-1.6-.1-1.6-1.6.1-1.6 1.6-1.6 1.6.1 1.6 1.6m-4-43.9q-.1 1.6-1.7 1.7-1.6-.1-1.6-1.7.1-1.5 1.6-1.6 1.6.1 1.7 1.6M25.3 24.7q-.1 1.5-1.7 1.6-1.5-.1-1.6-1.6.1-1.6 1.6-1.7 1.6.2 1.7 1.7m4.2-.1Q29.4 26 28 26c-.8 0-1.6-.7-1.6-1.5S27.2 23 28 23q1.4.1 1.5 1.6m.8 8.4q-.1 1.6-1.6 1.7-1.4-.1-1.5-1.6.2-1.5 1.5-1.6 1.5.1 1.6 1.6M28 42c0 .8-.8 1.5-1.6 1.5q-1.5-.1-1.6-1.6.1-1.3 1.6-1.5 1.3.2 1.5 1.5m16.2 10.3q-.2 1.5-1.5 1.6-1.6-.1-1.6-1.6.1-1.4 1.6-1.5 1.3.2 1.5 1.5m-4.4-41.9q-.1 1.4-1.5 1.5-1.5-.2-1.6-1.5.1-1.5 1.6-1.6 1.3.1 1.5 1.6M47.6 50q-.1 1.1-1.3 1.2T45.1 50q0-1.2 1.2-1.3 1.2.3 1.3 1.3m-3.8-38.5q0 1.2-1.2 1.3-1.2-.1-1.3-1.3.1-1.1 1.3-1.2 1.1.1 1.2 1.2m-11 12.8q-.1 1.1-1.3 1.2t-1.2-1.2 1.2-1.3q1.2.1 1.3 1.3M35 32q-.1 1-1.3 1.2-1.1-.1-1.2-1.3t1.2-1.2q1.2.2 1.3 1.2m1 7.3q0 1.1-1.2 1.2t-1.2-1.2q0-1.2 1.2-1.3 1.2.1 1.3 1.3m-3.9 1.2q0 1.1-1.2 1.2t-1.3-1.2q.1-1.2 1.3-1.3 1.1.1 1.2 1.3M47 13.8q-.1 1.1-1 1.2-1.2 0-1.3-1.2 0-1.2 1.2-1.3 1 .2 1.2 1.3m2.3 2.1q0 1-1 1a1 1 0 0 1-1.2-1q.1-1 1.1-1.1 1 .1 1.1 1.1M36 23.6q-.1 1-1.1 1.1a1 1 0 0 1-1.1-1q.1-1.1 1-1.2 1.1.1 1.2 1.1m4.1 7.7q0 1-1 1a1 1 0 0 1-1.2-1q.1-1 1.1-1.1 1 .1 1.1 1.1M39 39.2q0 1-1 1a1 1 0 0 1-1.2-1q.1-1 1.1-1.1 1 .1 1.1 1m0-16.6q0 .8-.9.9a1 1 0 0 1-1-1q.1-.8 1-.9t1 1M50 47.2a.8.8 0 0 1-1.5 0q.1-.7.8-.7t.8.7m.9-28.4q-.1.8-.9.8a.8.8 0 0 1 0-1.6q.7.1.8.8m-9.1 2.4q-.1.8-.8.8a.8.8 0 0 1 0-1.6q.8 0 .8.8m1.5 9q-.1.8-.7.8a.8.8 0 0 1 0-1.6q.6 0 .7.8m-1.1 9a.8.8 0 0 1-1.6 0q.1-.8.8-.8t.8.8m2.2-19.7q0 .6-.7.7a1 1 0 0 1-.7-.7q0-.6.7-.7t.7.7m2.6 9.9q0 .6-.6.7a1 1 0 0 1-.7-.7q0-.6.7-.7t.7.7m-2 9.8q0 .7-.7.7a1 1 0 0 1-.7-.7q0-.6.7-.7t.7.7" fill="#034ea2"/></svg>