<svg fill="none" xmlns="http://www.w3.org/2000/svg" viewBox="0 0 64 64"><path fill="#fff" d="M0 0h64v64H0z"/><path d="M32 4a28 28 0 1 1 0 56 28 28 0 0 1 0-56m0 2.4a25.6 25.6 0 1 0 0 51.2 25.6 25.6 0 0 0 0-51.2m2.9 24.8.5-.5-3.1-4 1.2-5.9q.2-.5.6-.6t.8.5q.3-.5.8-.5t.6.3q0 .4.7.3.5 0 .9.3l.4.7v.3H38q0-.3-.7-.2h-.8l6.2 24.3h-.4l-4.9-4.7-.6-.4 1.1 5h-.5l-5-4.9-1.9.1 1.2 4.9H26L24.5 41h-.9l-1.2 5.2h-6l2.8-11c-1.5 0-3.5-.8-3.8-3.1q.1-2.4 2-3.6l1.6.3 1.8.4c.5.4-1 1.7-1.4 1.6-.8 0-1.3-1-2-1-.8 0-1.2 1.5-1.2 2.2 0 1.7 1.9 2.2 3.2 2.2H24c-2.4-2.7-5.5-11.5-.9-18.3zm11-16a16 16 0 0 1-4.9 22l-3-11.4z" fill="#010148"/></svg>