<svg fill="none" xmlns="http://www.w3.org/2000/svg" viewBox="0 0 64 64"><path fill="#ff5900" d="M0 0h64v64H0z"/><path d="M18.6 42.8h-4V25.2h4zm31.2 0h-4V25.2h4zM35.5 25.2c3.2 0 5 2 5 4.7 0 1.9-1 3.7-3.3 4.4l-8.3 2.5q-1 .2-1 1.2 0 1.1 1.5 1.2H40v3.5H29c-3.4 0-5.1-2-5.1-4.6q-.2-3 3.7-4.5l8-2.5q.8-.2.9-1.2 0-1.1-1.4-1.2H24.3v-3.5zm-19.8-8q1.5-.6 2.6.5 1 1.1.5 2.6-.6 1.4-2.2 1.4c-1.3 0-2.4-1-2.4-2.3q0-1.6 1.5-2.2m31.2 0q1.5-.6 2.6.5 1 1.1.5 2.6-.6 1.4-2.2 1.4c-1.3 0-2.4-1-2.4-2.3q0-1.6 1.5-2.2" fill="#fff"/></svg>