<svg fill="none" xmlns="http://www.w3.org/2000/svg" viewBox="0 0 64 64"><path fill="url(#paint0_linear_73_7740)" d="M0 0h64v64H0z"/><path fill-rule="evenodd" clip-rule="evenodd" d="M23 36.1V30q-.1-2.7-2.6-2.6a4 4 0 0 0-3 1.6q-.4-1.6-2.3-1.6c-1.3 0-2.5.8-2.8 1.3v-1H10V36h2.3v-5.8q.6-.9 1.7-1 1.4.1 1.3 1.4V36h2.3v-5.8q.5-.9 1.8-1 1.4.1 1.3 1.4V36zm6.2.2c-2.8 0-4.6-2-4.6-4.5 0-2.4 1.8-4.5 4.6-4.5s4.5 2 4.5 4.5-1.7 4.5-4.5 4.5m0-2q2.1-.2 2.2-2.5c0-1.3-.8-2.5-2.2-2.5S27 30.5 27 31.8s.8 2.5 2.2 2.5m14.3 1.8v-6q0-2.7-2.8-2.8a4 4 0 0 0-3 1.3v-1h-2.3V36h2.3v-5.8q.5-.9 2-1t1.5 1.6V36zm6.2.2c-2.8 0-4.5-2-4.5-4.5 0-2.4 1.7-4.5 4.5-4.5 2.9 0 4.6 2 4.6 4.5s-1.7 4.5-4.6 4.5m0-2q2.3-.2 2.3-2.5c0-1.3-.8-2.5-2.3-2.5s-2.1 1.2-2.1 2.5.7 2.5 2.1 2.5" fill="#fff"/><defs><linearGradient id="paint0_linear_73_7740" x1="32" y1="0" x2="32" y2="64" gradientUnits="userSpaceOnUse"><stop stop-color="#363a45"/><stop offset="1" stop-color="#18191d"/></linearGradient></defs></svg>