<svg fill="none" xmlns="http://www.w3.org/2000/svg" viewBox="0 0 64 64"><g clip-path="url(#clip0_79_146)" fill-rule="evenodd" clip-rule="evenodd"><path d="M0 57.5C0 61.1 2.8 64 6.2 64h14l7.5-29.8a6 6 0 0 1 6-4.9h30.5V18.5c0-3.6-2.8-6.5-6.2-6.5H16.1c-2.8 0-5.3 2-6 4.9L.2 55.8z" fill="#00b1eb"/><path d="M64.2 46.7V29.3H33.7a6 6 0 0 0-6 5L20.1 64h22l3.2-12.4a6 6 0 0 1 6-5z" fill="#06639b"/><path d="M64.2 46.7H51.4a6 6 0 0 0-6 4.9L42.1 64H58c3.4 0 6.2-3 6.2-6.5z" fill="#292b5b"/></g><defs><clipPath id="clip0_79_146"><path fill="#fff" d="M0 0h64v64H0z"/></clipPath></defs></svg>