<svg fill="none" xmlns="http://www.w3.org/2000/svg" viewBox="0 0 64 64"><path fill-rule="evenodd" clip-rule="evenodd" d="M11 32a21 21 0 0 1 20.8-21v7.6a13.4 13.4 0 1 0 13.4 13.3h7.5A21 21 0 0 1 31.9 53 21 21 0 0 1 11 32" fill="#006648"/><path fill-rule="evenodd" clip-rule="evenodd" d="M22.7 32c0-5.1 4.1-9.3 9.2-9.3s9.3 4.2 9.3 9.3-4.2 9.3-9.3 9.3a9.3 9.3 0 0 1-9.2-9.3" fill="#52ae30"/><path fill-rule="evenodd" clip-rule="evenodd" d="M38.3 20.2c0-3 2.4-5.3 5.3-5.3a5.3 5.3 0 0 1 0 10.7c-3 0-5.3-2.5-5.3-5.4" fill="#00674a"/></svg>