<svg fill="none" xmlns="http://www.w3.org/2000/svg" viewBox="0 0 64 64"><path d="M32.3 56.5a24.6 24.6 0 1 0 0-49.2 24.6 24.6 0 0 0 0 49.2" fill="url(#paint0_linear_79_59)"/><path d="M32 5.2a26.8 26.8 0 1 0 0 53.6 26.8 26.8 0 0 0 0-53.6m0 50.6a23.8 23.8 0 1 1 0-47.6 23.8 23.8 0 0 1 0 47.6" fill="#8dc641"/><path d="m41.4 26-6 8.8h6zm2.2-3.7v12.5h2.6V37h-2.6v4.7h-2.2V37h-8.5v-2.4l8.5-12.3zM30.4 39.4v2.3H17.8v-.1q0-3.1 1.7-5a15 15 0 0 1 4-3.1l1-.6q1.6-1 2.4-2 1.2-1.3 1.2-2.9c0-2-1.5-3.5-3.7-3.5-2.5 0-3.8 1.9-3.9 4.7h-2.2v-.5c0-3.8 2.5-6.4 6.2-6.4s6 2.3 6 5.7q0 2.5-1.8 4.4c-.9 1-1.8 1.6-4 2.9l-2.8 2q-1 .9-1.3 2.1z" fill="#fff"/><defs><linearGradient id="paint0_linear_79_59" x1="13.4" y1="9.2" x2="47.2" y2="49.9" gradientUnits="userSpaceOnUse"><stop stop-color="#333"/><stop offset="1"/></linearGradient></defs></svg>