<svg fill="none" xmlns="http://www.w3.org/2000/svg" viewBox="0 0 64 64"><g clip-path="url(#clip0_76_8829)"><path fill="#fff" d="M0 0h64v64H0z"/><path d="M64 0H0v64h64z" fill="#14387f"/><path d="M64 19.8c-1.3 0-8.5-.7-15.1-.7-5.5 0-9 .2-12.8 1l-3.4 1.1s-1-.4-2.4-4.1a88 88 0 0 1-3.5-17h-2.3q.1 6.3 1.3 12.8a43 43 0 0 0 5 14.3s.8-1 3.4-2c3.3-1.3 8.8-2.7 17-3.2 5.3-.4 11.6-.4 12.8-.3zM43.1 41.2h-4l15.3 13.3-4-.7-4.5-.6-11.4-12h-4l13.4 11.6-9.6-1.7c-6.9-1.3-12-2.5-16.6-3.1A19 19 0 0 0 .3 54.3l1 3.2q4.2-5.4 11-6.8c5.4-1 9.6.9 14 1.7 2.4.5 7.2 1.8 20.6 3l6.5 5.5-5.2-5.4 8.1.6 5.6 4.8-4.6-4.8 6.7.2v-.8l-8-.8zm8.9 0h-4.1L64 55v-1.3zM1.6 21.3l2-2.7C9 23.3 13 29.5 11.5 35.2 9.8 42 3.5 45.8 0 47.6v-.5c.1-.1 8.4-5.3 9.4-12.3 1.2-8-7.7-13.5-7.8-13.5" fill="#fbba00"/><path d="M64 36.2q-7.1 1.9-14.5 2.2-11.8.9-21.7-2.9a36 36 0 0 1-17.7-14q-3.8-6-5.8-12.8L8 6.6q1.4 8.8 6.8 16 4.5 5.8 11 9.3a44 44 0 0 0 19.3 5c4.2.2 7.6 0 12.8-.6 3-.3 5.3-.8 6-.9z" fill="#fbba00"/></g><defs><clipPath id="clip0_76_8829"><path fill="#fff" d="M0 0h64v64H0z"/></clipPath></defs></svg>