<svg fill="none" xmlns="http://www.w3.org/2000/svg" viewBox="0 0 64 64"><path fill="#ff700d" d="M0 0h64v64H0z"/><path d="M25 38v-4.3q0-1-.2-1.7 0-1.2-.3-2.3V29l-.3-.5-.2-.4q-.2-.6-.7-1L23 27l-.1-.1h-.1q-.3-.4-.7-.4l-.3-.1v-.1h-.2l-.6-.1h-.6L20 26l-.3.1h-.8v.2l-.4.1-.3.1H18v.1l-.4.2-.2.1v.1h-.2v.2H17l-.5.5-.6.7v.1l-.1.3-.2.2v.4h-.1l-.1.2v1.6l-.1.4v.1h-.1v1.4l-.1.1v.8q0 .2.2.3v.1h-.2v1.8H15l.3.3v.4l.1.3v.1h-.1v.2q.2.1 0 .4v.6l.1.1v2.2q0 .6.3 1h.2q.3 0 .2-.4v-8.8q.2-.2.1-.3V31q.3-.3.2-.8V30l.1-.4.3-.5V29l.1-.3.3-.3q0-.3.3-.3h.1v-.2l.2-.2.3-.2.3-.1.3-.2h.5l.1-.2h.7q.8-.2 1.2 0h.2l.6.3h.1l.1.2.4.1.5.9v.1h.1q0 .4.3.6v.6q0 .2.2.3v.6h.1v.8l.1.3v3h.1v.8q0 .3.2.4v.3l-.1.2v.4l-.1.2v.4l.2.1v.2H24V39h-.2l.2.3v.1h-.2l.2.3.1.1v.5H24v.2h-.2l.2.2h-.2l.2.2v.6h.3v.2h.2q.3-.1.4 0h.2v-2.1l.1-1.6v-.3m24.1-15.3q-.4-.2-.9-.1-2.5-.3-5.2-.1h-2.8L33 22a83 83 0 0 0-9.5.1H15q-.5.1-.6.7 0 .3.4.3h6.9l5-.1h4l.3-.1h.8l.9.1h1q3.1 0 7.4.3l1.3.2h3.8l2.6.2.5-.4q.3-.5-.1-.8M37.2 38v-3l-.1-1.3L37 32q0-1.2-.3-2.3V29h-.1l-.2-.5-.2-.4-.7-1-.3-.2-.1-.1H35q-.4-.4-.8-.4l-.3-.1v-.1h-.1l-.7-.1h-.6l-.3-.1-.3.1H31l.1.2-.4.1-.3.1h-.1v.1l-.4.2-.2.1v.1h-.3v.2h-.2l-.4.5-.6.7v.1l-.2.3v.2l-.2.4-.1.2v1.6q-.2.3-.1.4v.1h-.1V34l.1.3v.1h-.1v1.8h-.2l.2.3v.4l.1.3v1.3l.1.1v2.2q-.1.6.4 1h.1q.4 0 .3-.4v-8.8l.1-.3V31q.2-.3.2-.8V30l.1-.4.3-.5V29l.1-.3.3-.3q0-.3.3-.3h.1v-.2l.3-.2.3-.2.2-.1.3-.2h.4l.2-.2h.7q.8-.2 1.2 0h.2l.6.3h.1l.1.2.3.1q.5.5.6.9v.1h.1q0 .4.3.6v.6l.1.3v.1q-.2.4.2.5l-.1.3v.5h.1V34l.1.5v1.2q0 .3.2.4v.3l-.1.2v.4l-.1.2v.1h.1v.3l.2.1v.2h-.3V39h-.1l.1.3v.1h-.1l.2.3v.5l-.1.2v.1h-.2l.2.2H36l.1.2v.4l.1.2h.3v.2h.2q.2-.1.4 0h.2v-3.9m11.9.5v-3l-.1-1.4v-1.7q0-1.1-.4-2.3v-.5l-.1-.1-.3-.4-.1-.5-.8-1-.2-.2h-.1V27h-.2l-.7-.4-.3-.1h-.1l-.7-.2h-.6l-.3-.1q-.3 0-.4.2H43v.1l-.3.1-.3.1-.1.1h-.1l-.3.3h-.2v.1h-.3v.2h-.2q-.2.4-.5.6l-.5.7H40v.1l-.1.2-.1.3-.2.3v.5h-.1v1.8l-.2.2h.1v1.2l-.1.2.1.1v.4l-.1.2h.1v.4h-.1l.1.3v1.5l-.3.1.2.2v.2h.1v.9q.1.1 0 .4v.6l.1.1v1.7l.1.5q0 .5.3 1h.2q.3 0 .2-.4V33q.2-.3.1-.4v-1.2q.3-.5.2-.9v-.3l.1-.4.3-.5.2-.3.2-.4.3-.3h.1q0-.2.3-.3l.3-.3h.2l.3-.2q.2-.2.3-.1h.1l.3-.1h.6q.8-.2 1.2 0h.3q.2.2.5.2l.2.2.4.2q.5.5.5.9v.1h.2q0 .4.2.6v.7l.1.3q-.1.5.2.6V35l.1.1v.7q0 .4.2.5v.3l-.1.1v.4l-.1.3v.4h.2v.2H48v1.2l-.1.1.2.2-.1.2.2.3v.6H48v.2h-.2l.2.2h-.2l.1.2v.4l.1.2h.3v.2h.2q.2-.1.4 0h.1v-.2l.1-1.9zV38" fill="#fff"/><path d="M12.3 12.3h39.4v39.4H12.3zM10 54h44V10H10z" fill="#fff"/></svg>