<svg fill="none" xmlns="http://www.w3.org/2000/svg" viewBox="0 0 64 64"><path fill="#e60c2a" d="M0 0h64v64H0z"/><path d="M47 33.1c0 1.5 1.3 2.4 2.5 2.4 1.3 0 2.4-1 2.4-2.3S50.7 31 49.4 31c-1.2 0-2.3.8-2.3 2.1m-12.6 4.7h-3V27.2h3l2.7 4 2.6-4h3v10.6h-3v-5.7l-2.6 4-2.7-4zm-10.2-1.3-4.6-9.3H23l2.8 5.6.1-.3 1.7-5.3h3.3l-3.3 9.2q-1.3 4.5-6 4.7V38q2.4 0 2.7-1.5m-12.1 1.3H9V27.2h10v10.6h-3.1V30H12zm37.6.5a6 6 0 0 1-5.8-5.9c0-3.4 1.4-5.8 5-7.4q.8-.3 2-1.2.5-.4.7-.9l2.6 1.6c-.6 1.6-2 2.2-3.5 2.8q-2.2.6-3.1 2.2 1.2-.9 2.8-.9c2.4 0 4.7 2 4.6 4.7 0 3.4-2.8 5-5.3 5" fill="#fff"/></svg>