<svg fill="none" xmlns="http://www.w3.org/2000/svg" viewBox="0 0 64 64"><path d="M32 17C18.7 17 8 23.1 8 30.6q0 3.6 3 6.6l.6.6a20 20 0 0 0 5.6 3.4q2.5 1.1 5.2 1.8l1 .2a9.5 9.5 0 0 0 15.3.5c10-1.6 17.3-6.9 17.3-13C56 23 45.3 17 32 17m4.8 24a6.2 6.2 0 1 1-8.8-8.8 6.2 6.2 0 0 1 8.8 8.8m1.1-9.8A9.5 9.5 0 0 0 22.6 42l-.4-.1-.4-.1c-3.3-1-6.7-2.4-9.3-4.6 1.4-4.2 5.4-8.7 11-12 4.2-2.3 8-2.6 12 .8q1.6 1.3 2.6 3l.8 2.2.2 1.5q-.5-.8-1.2-1.5m17-.6v1.1c-1 6-7.9 8-13.1 8.1 7.5-7.3 6.8-20-6.3-19.5a32 32 0 0 0-20.8 10.6c-4.7-4.3-3.3-7 1.6-9.4A35 35 0 0 1 32 18c5.3 0 11 1 15.7 3.5 3.1 1.6 6.6 4.3 7.2 8z" fill="#154a90"/></svg>