<svg fill="none" xmlns="http://www.w3.org/2000/svg" viewBox="0 0 64 64"><path fill="#2722ff" d="M0 0h64v64H0z"/><path d="m44.7 27.7-.9 2.3v.1q-1.4-1.1-2.8-1-1.8 0-1.6.9t2 1.3c2.5.9 3.2 1.7 3.2 2.7 0 1.5-1.1 2.7-3.4 2.7-1.9 0-3.3-1-4-2l1.1-1q1 1.5 3 1.6 1.6 0 1.7-1.2.1-.6-2-1.3-3.1-.9-3.2-2.8 0-2.2 3.2-2.4 1.2 0 2.2.6l.2-.9zm-27.7 0-.8 2.3v.1q-1.5-1.1-2.9-1-1.7 0-1.6.9.2 1 2 1.3c2.5.9 3.2 1.7 3.2 2.7 0 1.5-1 2.7-3.3 2.7-2 0-3.4-1-4.1-2.1l1.2-1q1 1.6 3 1.7 1.6 0 1.6-1.2.2-.6-2-1.3-3.1-.9-3.2-2.8.1-2.2 3.2-2.4 1.3 0 2.2.6l.2-.9z" fill="#fff"/><path fill-rule="evenodd" clip-rule="evenodd" d="M22.3 27.6c2.8 0 4.4 2.1 3.7 4.9h-6.3a3 3 0 0 0 3 2.7q2-.1 2.8-1.9l1.3.8a4 4 0 0 1-4.2 2.6c-2.6 0-4.6-2-4.6-4.6 0-2.4 2-4.5 4.3-4.5m0 1.5q-2 .1-2.6 2h5q-.1-1.9-2.4-2M50 27.6c2.9 0 4.4 2.1 3.7 4.9h-6.3a3 3 0 0 0 3 2.7q2.1-.1 2.8-1.9l1.3.8a4 4 0 0 1-4.2 2.6c-2.5 0-4.5-2-4.5-4.6 0-2.4 2-4.5 4.3-4.5m0 1.5q-2 .1-2.5 2h4.8q0-1.9-2.2-2" fill="#fff"/><path d="M32.3 27.6q3.6 0 3.7 3.6v5.2h-1.5v-5.1q-.1-2-2.3-2.2c-1.7 0-2.7 1.3-2.7 2.8v4.5H28V28h1.5v1q1.1-1.2 2.8-1.3" fill="#fff"/></svg>