<svg fill="none" xmlns="http://www.w3.org/2000/svg" viewBox="0 0 64 64"><path d="M52 21.4 33 32.3a4 4 0 0 1-.5-2.9q.2-.6.9-1.2l.8-.7 1-.9q1.3-1 2.2-2.6a11 11 0 0 0-.2-11z" fill="#76b729"/><path d="M32.6 10.5A9.5 9.5 0 0 1 36 23.2c-1.9 3.8-6.4 3.4-4.9 9a6 6 0 0 1-1-7.3c1.2-2 3.2-2.7 4-5 1-2.4.6-4.3 0-5 .4 1.8 0 4.5-1.7 6.2s-4.2 3-4 6.7a7 7 0 0 1-1.2-6c.9-3 2.9-3.5 4.2-5.9 1.2-2.2 1.2-4.2 1.2-5.4" fill="#76b729"/><path d="M31 10.5c0 1.2 0 2.8-1 4.6-.5 1-1.1 1.5-2 2.4a9 9 0 0 0-2.4 8c.3 1 1.3 3.1 2.6 5.2L12 21.4z" fill="#76b729"/><path fill-rule="evenodd" clip-rule="evenodd" d="M33.9 40.3v-2.5h3.9v11c0 1-.1 5-6.4 5-5.7 0-6-3.7-6-4.5H29c0 .5.4 1.6 2.4 1.6s2.4-1 2.4-2v-2c-.5.8-1.6 1.7-3.5 1.7-1.2 0-5.3-.2-5.3-5.5 0-4.8 3.1-5.6 5-5.6h2zm-2.8.2c-.4 0-2.2 0-2.2 2.7s2 2.5 2.2 2.5h.9a2 2 0 0 0 1.9-2v-3.2z" fill="#084e97"/><path d="M16.8 43.7q0 2.5 2 2.5Q20.9 46 21 43v-5.1h3.9v11H21v-2a4 4 0 0 1-3.8 2.4c-3.2 0-4.2-2-4.2-4.8V38h3.8z" fill="#084e97"/><path fill-rule="evenodd" clip-rule="evenodd" d="M42.2 39.2a5 5 0 0 1 3.8-1.8c2.1 0 5 1.1 5 6 0 5.2-3.5 5.8-4.4 5.8h-2.2l-2.2-2.8v2.5h-3.9V33.4h4zm2.5 1.2c-2.3 0-2.5 1.8-2.5 2.5v3.4h2.6c2.3 0 2.5-1.9 2.5-2.9s0-3-2.6-3" fill="#084e97"/></svg>