<svg fill="none" xmlns="http://www.w3.org/2000/svg" viewBox="0 0 64 64"><path fill="#018e71" d="M0 0h64v64H0z"/><path d="M49.1 17.3c-3.8 2.3-5 2.4-9.1 5a48 48 0 0 0 4.7-6c-3.8.2-9.4.7-13.4 1.5a53 53 0 0 1 14-4.4c-.9-1.1-7.6-4.8-9.3-5.5 5.3.4 12 2.4 15.1 4.4 1.3-.4 2.6-.4 4.9-.6-.6 1-.6 1.6-3 3a36 36 0 0 1-2 13.6c0-4-.4-8.8-1.9-11m-28 33.5c-2.2-.8-3.7-1.8-5.5-3.4q.7-2 2.1-4l-4.6.8a24 24 0 0 1-2.5-7.3 26 26 0 0 0 0 7.9q-2 .5-3.6 1.2 2.3 1.4 4.8 2.6c1 2.1 2 3.5 3.6 5.1a9 9 0 0 1-.3-3.9c2 .6 3.7 1 6 1m5.7-31.1a17 17 0 0 0-1.6 3.4 28 28 0 0 1 10.2 3.6c-5-.9-7.6-.7-9.4-.6-1.9.2-2.3.4-2.3.4-1.3 3-2 8-2 8-1-2.2-2.3-6.6-2.3-6.6a67 67 0 0 0-8.2 6.8c3.1-6.3 6.3-9.2 6.3-9.2-1-1.2-4-1.7-6-1.8 1-.4 3.8-1 6-1H21c1.9-1.5 4.8-2.8 5.8-3m6.1 27.2-3 3.6c-2 .6-3.4.8-5.3.8q1.6.8 3.4 1.2-1.7 1.5-3.3 2.5a21 21 0 0 0 6.4-2.4l2.5-.1-.4-1.8q2.5-1.9 4.6-4.1-2.2 1.6-4.8 2.8z" fill="#fff"/></svg>