<svg xmlns="http://www.w3.org/2000/svg" viewBox="0 0 84 40"><path fill="#016fd0" d="M0 0h84v40H0z"/><path fill="#fff" d="M20 21.77v11.41h11.8l1.3-1.72 1.28 1.72h7.15v-2.64h1.6a3.9 3.9 0 0 0 2-.43v3.07h4.72v-1.8l1.45 1.8h23.98a2.6 2.6 0 0 0 .49 0 3.9 3.9 0 0 0 2.52-1.22A4.22 4.22 0 0 0 79.36 29a3.88 3.88 0 0 0-1-2.77 2 2 0 0 0-.22-.2l2-4.27H34.48l-1.32 1.69-1.28-1.69ZM8.74 6.81h4.65l1.52 3.56V6.81h5.78l.91 2.57.88-2.57H48.4v1.3a5.52 5.52 0 0 1 3.6-1.3h8.41l1.5 3.51V6.81h4.83l1.33 2v-2H73v11.42h-4.93l-1.27-2v2h-7.1l-.7-1.8h-1.9l-.71 1.8h-4.83A4.72 4.72 0 0 1 48.4 17v1.27h-7.26l-1.44-1.8v1.8h-27l-.7-1.84h-1.92l-.7 1.8H3.92Z"/><path fill="#016fd0" d="m9.69 8.22-3.62 8.54h2.36l.67-1.71H13l.67 1.71h2.41l-3.64-8.54Zm.16 5 1.18-3 1.19 3ZM24.73 10.47v6.29h2.11V8.22h-3.32l-1.91 5.52-1.95-5.51-3.35-.01v8.54h2.11v-6.29l2.24 6.29h1.84zM35.15 14.91h-4.74v-1.52h4.63v-1.8h-4.63v-1.46h4.74V8.22h-6.87v8.54h6.87zM38.48 13.73h.89l2.52 3h2.57l-2.77-3.14A2.59 2.59 0 0 0 44 11a2.74 2.74 0 0 0-2.94-2.77h-4.69v8.54h2.11Zm0-3.6h2.41a1 1 0 0 1 1 .9 1 1 0 0 1-1 .9h-2.41ZM44.86 8.22h2.15v8.55h-2.15zM51.65 16.76h.46L53 14.9h-.55a2.08 2.08 0 0 1-2.28-2.35 2 2 0 0 1 2-2.31h2.41v-2h-2.36C49.39 8.22 48 10 48 12.53s1.4 4.23 3.65 4.23M55.43 16.76l.67-1.71H60l.66 1.71h2.41l-3.63-8.54H56.7l-3.63 8.54ZM58 10.21l1.18 3h-2.33ZM65.42 11.26l3.5 5.5h2.59V8.22h-2.1v5.37l-3.42-5.37h-2.68v8.54h2.11zM21.41 31.72h6.87v-1.86h-4.74v-1.52h4.63v-1.79h-4.63v-1.47h4.74v-1.91h-6.87zM55.08 31.72h6.87v-1.86h-4.74v-1.52h4.61v-1.79h-4.61v-1.47h4.74v-1.91h-6.87zM35.21 23.17l-2.05 2.68-2.04-2.68h-2.65l3.42 4.33-3.34 4.22h2.61l1.94-2.63 1.98 2.63h2.65l-3.35-4.27 3.38-4.28zM42.63 23.18H38v8.54h2.16V29h2.22c1.87 0 3.29-1 3.29-3a2.78 2.78 0 0 0-3.04-2.82m-.16 3.9h-2.33v-2h2.33a1 1 0 0 1 1 1 1 1 0 0 1-1 1M54.2 25.94a2.74 2.74 0 0 0-2.94-2.77h-4.69v8.55h2.11v-3h.88l2.53 3h2.57l-2.77-3.15a2.59 2.59 0 0 0 2.31-2.63m-3.09.94h-2.43v-1.8h2.4a1 1 0 0 1 1 .9 1 1 0 0 1-.97.9M67.52 26.54h-2a.74.74 0 0 1-.78-.74c0-.34.21-.7.89-.7h3.54l.89-1.93H66c-2.46 0-3.31 1.32-3.31 2.69a2.37 2.37 0 0 0 2.58 2.56h1.91c.62 0 .89.37.89.73s-.27.71-.89.71h-4.25v1.86h4.49A2.55 2.55 0 0 0 70.17 29a2.33 2.33 0 0 0-2.65-2.46M75.25 26.54h-2a.74.74 0 0 1-.77-.74c0-.34.21-.7.88-.7h3.55l.89-1.93h-4.1c-2.46 0-3.31 1.32-3.31 2.69A2.37 2.37 0 0 0 73 28.42h1.9c.63 0 .9.37.9.73s-.27.71-.9.71h-4.24v1.86h4.49A2.55 2.55 0 0 0 77.9 29a2.34 2.34 0 0 0-2.65-2.46"/></svg>