<svg xmlns="http://www.w3.org/2000/svg" viewBox="0 0 84 40"><path fill="#201d1c" d="M10.22 14.29H7v11.26h3.21a5.9 5.9 0 0 0 4-1.3 5.65 5.65 0 0 0 2-4.32c.06-3.33-2.43-5.64-5.99-5.64m2.57 8.46a4.2 4.2 0 0 1-3 .89h-.6V16.2h.59a4.07 4.07 0 0 1 3 .91 3.77 3.77 0 0 1 1.22 2.8 3.87 3.87 0 0 1-1.21 2.84M17.28 14.29h2.2v11.26h-2.2zM24.84 18.61c-1.32-.49-1.7-.81-1.7-1.42S23.83 16 24.77 16a2.27 2.27 0 0 1 1.77.91l1.15-1.51a4.93 4.93 0 0 0-3.31-1.24 3.3 3.3 0 0 0-3.51 3.22c0 1.55.71 2.35 2.77 3.09a8.2 8.2 0 0 1 1.52.64 1.35 1.35 0 0 1 .66 1.16 1.61 1.61 0 0 1-1.71 1.59 2.58 2.58 0 0 1-2.39-1.5l-1.42 1.32a4.39 4.39 0 0 0 3.9 2.14 3.63 3.63 0 0 0 3.88-3.7c0-1.78-.74-2.59-3.24-3.51M28.77 19.93a5.83 5.83 0 0 0 5.94 5.87 6.1 6.1 0 0 0 2.76-.66v-2.58a3.51 3.51 0 0 1-2.65 1.23A3.68 3.68 0 0 1 31 19.91a3.67 3.67 0 0 1 6.44-2.6v-2.58a5.6 5.6 0 0 0-2.68-.73 5.92 5.92 0 0 0-5.99 5.93M54.88 21.85l-3.01-7.56h-2.39l4.77 11.55h1.18l4.87-11.55h-2.38zM61.29 25.55h6.23v-1.91h-4.04V20.6h3.89v-1.9h-3.89v-2.5h4.04v-1.91h-6.23zM73.65 20.8a3 3 0 0 0 2.56-3.19c0-2.1-1.45-3.32-4-3.32H69v11.26h2.19V21h.29l3 4.53h2.7Zm-1.84-1.33h-.65v-3.41h.68c1.37 0 2.11.58 2.11 1.67s-.74 1.74-2.14 1.74"/><circle cx="44.13" cy="20.01" r="6.17" fill="#ff6f00"/></svg>