<svg xmlns="http://www.w3.org/2000/svg" viewBox="0 0 84 40"><path fill="#fff" d="M68.1 32a8.1 8.1 0 0 1-8.1 8.13H16v-32A8.1 8.1 0 0 1 24.09 0h44v32Z"/><path fill="#4aa35b" d="M53.77 23.82h3.7600000000000002a1.49 1.49 0 0 0 1.18-1.5 1.54 1.54 0 0 0-1.18-1.49 1.8 1.8 0 0 0-.41 0h-3.35ZM56.73 2.71a5.79 5.79 0 0 0-5.79 5.79v6h8.18a3.6 3.6 0 0 1 .58 0c1.84.1 3.21 1.06 3.21 2.71a2.7 2.7 0 0 1-2.64 2.64V20c1.88.13 3.31 1.18 3.31 2.8s-1.59 2.9-3.69 2.9h-9v11.75h8.5a5.8 5.8 0 0 0 5.8-5.79V2.71ZM58.3 17.64a1.37 1.37 0 0 0-1.18-1.37H53.8v2.81h3.32a1.35 1.35 0 0 0 1.18-1.37Z"/><path fill="#214f9c" d="M24.69 2.71A5.79 5.79 0 0 0 18.9 8.5v14.3a11.4 11.4 0 0 0 5 1.31 2.78 2.78 0 0 0 3.1-2.87v-6.75h5v6.72c0 2.61-1.67 4.79-7.18 4.79a24.2 24.2 0 0 1-5.95-.74v12.2h8.5a5.8 5.8 0 0 0 5.8-5.79V2.71Z"/><path fill="#da3833" d="M40.71 2.71a5.79 5.79 0 0 0-5.79 5.79v7.58c1.46-1.24 4-2 8.12-1.84a25 25 0 0 1 4.55.7v2.45a11 11 0 0 0-4.39-1.28c-3.12-.22-5 1.31-5 4s1.88 4.23 5 4a11.45 11.45 0 0 0 4.39-1.28v2.46A25.6 25.6 0 0 1 43 26c-4.11.19-6.66-.61-8.12-1.85v13.34h8.5a5.8 5.8 0 0 0 5.8-5.8v-29Z"/></svg>