<svg xmlns="http://www.w3.org/2000/svg" viewBox="0 0 84 40"><path fill="#ffcb09" d="M34.22 19.52a1.25 1.25 0 1 1 1.26 1.21v1.63a2.84 2.84 0 1 0-2.95-2.84Z"/><path fill="#004a8f" d="M55.48 15.62h2.74v9.85h2.47v-9.84h2.76v-2.1h-7.97zM7 25.47h2.48v-9.85h4.95v9.86h2.48V13.53H7zM26.23 14.44a4.52 4.52 0 0 0-3.23-.91h-3.6v11.94h2.47v-4.42h1.5a4.32 4.32 0 0 0 3.1-1.05 3.94 3.94 0 0 0-.24-5.55Zm-1.89 4.23a2.6 2.6 0 0 1-1.58.37h-.93v-3.51h.78a3 3 0 0 1 1.71.38 1.64 1.64 0 0 1 .68 1.36 1.75 1.75 0 0 1-.66 1.4M45.41 14.83a6.15 6.15 0 0 0-2 4.68 5.87 5.87 0 0 0 2 4.57 6.2 6.2 0 0 0 4.53 1.66A6.55 6.55 0 0 0 53 25v-2.68a3.77 3.77 0 0 1-2.89 1.31A4.13 4.13 0 1 1 53 16.72V14a6.4 6.4 0 0 0-3-.73 6.5 6.5 0 0 0-4.59 1.56M65.92 13.53h2.47v11.95h-2.47zM77.74 14.44a4.55 4.55 0 0 0-3.27-.91h-3.6v11.94h2.48v-4.42h1.49A4.36 4.36 0 0 0 78 20a3.73 3.73 0 0 0 1-2.67 3.74 3.74 0 0 0-1.26-2.89m-1.89 4.23a2.6 2.6 0 0 1-1.58.37h-.92v-3.51h.77a3 3 0 0 1 1.71.38 1.64 1.64 0 0 1 .69 1.36 1.75 1.75 0 0 1-.67 1.4M39.8 17.45a4.4 4.4 0 0 1 .49 2.05 4.84 4.84 0 1 1-5.12-4.66l1.21-1.78a7 7 0 0 0-.92-.06 6.62 6.62 0 0 0-6.74 6.5 6.74 6.74 0 0 0 13.47 0A6.35 6.35 0 0 0 41 15.74Z"/></svg>