<svg xmlns="http://www.w3.org/2000/svg" viewBox="0 0 84 40"><path fill="#e21836" d="M25.84 3H39.4A2.64 2.64 0 0 1 42 6.44l-6.28 27.12A4.62 4.62 0 0 1 31.48 37H17.92a2.64 2.64 0 0 1-2.63-3.44L21.6 6.44A4.61 4.61 0 0 1 25.84 3"/><path fill="#00447c" d="M38.27 3h15.61c1.89 0 1 1.54.59 3.44l-6.32 27.12C47.71 35.45 47.85 37 46 37H30.35a2.63 2.63 0 0 1-2.62-3.44L34 6.44A4.61 4.61 0 0 1 38.27 3"/><path fill="#007b84" d="M53.26 3h13.56a2.64 2.64 0 0 1 2.63 3.44l-6.31 27.12A4.63 4.63 0 0 1 58.9 37H45.34a2.64 2.64 0 0 1-2.63-3.44L49 6.44A4.61 4.61 0 0 1 53.26 3"/><path fill="#fefefe" d="M28.65 15.19a14 14 0 0 1-1.94 0c-.05.24-1 4.58-1 4.59a3.18 3.18 0 0 1-.85 1.91 1.52 1.52 0 0 1-1 .34.92.92 0 0 1-1-.89v-.2l.14-1.21s1-4 1.16-4.48v-.06a14 14 0 0 1-2.29 0l-.06.29-1 4.46-.09.38-.16 1.23a1.84 1.84 0 0 0 .21.92c.46.81 1.77.93 2.51.93a4.86 4.86 0 0 0 2.46-.58 3.62 3.62 0 0 0 1.57-2.45l.12-.44s1-4.11 1.19-4.65a.11.11 0 0 1 .03-.09m3.46 3.32a2.8 2.8 0 0 0-1.1.25l-.43.25.13-.47-.07-.08c-.85.17-1 .19-1.83.3h-.07a23 23 0 0 1-.51 2.82c-.13.55-.26 1.11-.4 1.66v.07c.81-.05 1.05-.05 1.75 0l.06-.06c.09-.45.1-.56.3-1.49.09-.44.29-1.4.38-1.75a1.35 1.35 0 0 1 .52-.16c.39 0 .34.35.33.48s-.16 1-.31 1.63l-.1.41-.21.91v.07c.8-.05 1-.05 1.72 0l.08-.06c.12-.71.16-.9.38-1.94l.11-.48c.21-.94.32-1.41.16-1.8a.94.94 0 0 0-.89-.56m3.87 1-1 .17-.94.13c0 .3-.07.57-.13.88s-.12.68-.24 1.2a4.4 4.4 0 0 1-.2.68c-.05.15-.1.28-.21.68h1.82c.06-.35.06-.45.1-.62s.1-.44.25-1.13c.07-.32.15-.65.23-1s.16-.65.23-1v-.07Zm0-1.32a1.56 1.56 0 0 0-1.52.15c-.45.31-.5.75-.12 1a1.57 1.57 0 0 0 1.51-.16c.46-.36.52-.79.15-1.01Zm2.32 5.26a2.92 2.92 0 0 0 2.18-.85 3.9 3.9 0 0 0 .76-1.6 2 2 0 0 0-.18-1.83 2 2 0 0 0-1.63-.6 3 3 0 0 0-2.06.71 3.4 3.4 0 0 0-.91 1.72c-.15.64-.31 1.8.75 2.23a3.1 3.1 0 0 0 1.1.2Zm-.06-2.36c.18-.8.4-1.46.94-1.46s.45.49.26 1.29a3.4 3.4 0 0 1-.4 1.11.64.64 0 0 1-.51.34s-.39 0-.4-.51a3.7 3.7 0 0 1 .12-.79Zm4.94 2.25.06-.06c.08-.45.1-.56.29-1.49.09-.44.29-1.4.39-1.75a1.3 1.3 0 0 1 .51-.16c.39 0 .35.35.33.48a15 15 0 0 1-.3 1.64l-.09.41c-.07.31-.15.61-.22.91v.07c.8-.05 1-.05 1.72 0l.08-.06c.12-.71.16-.9.38-1.94l.11-.48c.21-.94.32-1.41.16-1.8a.94.94 0 0 0-1-.53 2.8 2.8 0 0 0-1.09.25l-.43.25.12-.47-.06-.08c-.86.17-1.05.19-1.84.3h-.06a25 25 0 0 1-.51 2.82c-.13.55-.27 1.11-.4 1.66v.07c.91-.07 1.16-.07 1.86-.06Zm5.87 0 .35-1.7.27-1.11a.6.6 0 0 1 .16-.15H50a5.43 5.43 0 0 0 3.35-.73 3.58 3.58 0 0 0 1.33-2.12 3.2 3.2 0 0 0 .09-.73 1.56 1.56 0 0 0-.27-1c-.5-.7-1.5-.71-2.65-.72h-2.88v.3l-.53 2.45L47 23.35c1.31-.02 1.84-.02 2.06.01ZM50 19s.56-2.45.56-2.44v-.22h.22l1.19.1a1 1 0 0 1 .51 1.23 1.79 1.79 0 0 1-.93 1.23 3 3 0 0 1-1.3.2H50Zm3.5 2.1c-.15.64-.32 1.79.74 2.2a1.9 1.9 0 0 0 .94.17 1.54 1.54 0 0 0 .91-.41l-.08.29.05.06h1.82l.08-.05c.12-.71.23-1.4.54-2.75.16-.65.31-1.29.46-1.94v-.07c-.85.16-1.08.19-1.9.31l-.06.05v.19a1.17 1.17 0 0 0-.59-.49 2.3 2.3 0 0 0-2 .71 3.35 3.35 0 0 0-.87 1.74Zm1.79 0c.18-.78.39-1.44.93-1.44.34 0 .52.32.49.86 0 .13-.06.27-.1.43s-.11.47-.17.7a2 2 0 0 1-.2.4.93.93 0 0 1-.66.32c-.06 0-.39 0-.4-.49a2.8 2.8 0 0 1 .15-.73Zm9.33-2.57-.06-.08c-.85.17-1 .2-1.77.3l-.06.06c-.58 1.33-.56 1-1 2.09v-.13l-.12-2.26-.08-.08c-.88.17-.9.2-1.71.3l-.07.06a.3.3 0 0 0 0 .09 9 9 0 0 1 .18 1.23c0 .4.11.8.16 1.2.08.67.13 1 .23 2-.55.91-.68 1.26-1.21 2.05l-.37.59a.4.4 0 0 1-.14.12.55.55 0 0 1-.24 0h-.21l-.31 1h1.06a1.29 1.29 0 0 0 1.21-.68l.67-1.14.07-.08c.42-.78 3.81-6.59 3.81-6.59Z"/></svg>